HIERARCHY
ROOT Hips
{
	OFFSET 0.00000 0.00000 0.00000
	CHANNELS 6 Xposition Yposition Zposition Zrotation Yrotation Xrotation 
	JOINT LHipJoint
	{
		OFFSET 0 0 0
		CHANNELS 3 Zrotation Yrotation Xrotation
		JOINT LeftHip
		{
			OFFSET 1.62964 -1.40469 0.78906
			CHANNELS 3 Zrotation Yrotation Xrotation
			JOINT LeftKnee
			{
				OFFSET 2.29640 -6.30932 0.00000
				CHANNELS 3 Zrotation Yrotation Xrotation
				JOINT LeftAnkle
				{
					OFFSET 2.29451 -6.30412 0.00000
					CHANNELS 3 Zrotation Yrotation Xrotation
					JOINT LeftToe
					{
						OFFSET 0.03611 -0.09921 1.56387
						CHANNELS 3 Zrotation Yrotation Xrotation
						End Site
						{
							OFFSET 0.00000 -0.00000 0.80291
						}
					}
				}
			}
		}
	}
	JOINT RHipJoint
	{
		OFFSET 0 0 0
		CHANNELS 3 Zrotation Yrotation Xrotation
		JOINT RightHip
		{
			OFFSET -1.73712 -1.40469 0.78906
			CHANNELS 3 Zrotation Yrotation Xrotation
			JOINT RightKnee
			{
				OFFSET -2.28137 -6.26801 0.00000
				CHANNELS 3 Zrotation Yrotation Xrotation
				JOINT RightAnkle
				{
					OFFSET -2.28681 -6.28298 0.00000
					CHANNELS 3 Zrotation Yrotation Xrotation
					JOINT RightToe
					{
						OFFSET -0.15927 -0.43759 1.61103
						CHANNELS 3 Zrotation Yrotation Xrotation
						End Site
						{
							OFFSET -0.00000 -0.00000 0.84630
						}
					}
				}
			}
		}
	}
	JOINT lowerback
	{
		OFFSET 0 0 0
		CHANNELS 3 Zrotation Yrotation Xrotation
		JOINT Chest
		{
			OFFSET -0.04227 2.04338 -0.00225
			CHANNELS 3 Zrotation Yrotation Xrotation
			JOINT Chest2
			{
				OFFSET -0.02148 2.04482 -0.04273
				CHANNELS 3 Zrotation Yrotation Xrotation
				JOINT lowerneck
				{
					OFFSET 0 0 0
					CHANNELS 3 Zrotation Yrotation Xrotation
					JOINT Neck
					{
						OFFSET 0.09180 1.44629 0.19359
						CHANNELS 3 Zrotation Yrotation Xrotation
						JOINT Head
						{
							OFFSET 0.00887 1.40645 0.14750
							CHANNELS 3 Zrotation Yrotation Xrotation
							End Site
							{
								OFFSET -0.00669 1.50671 0.03707
							}
						}
					}
				}
				JOINT LeftCollar
				{
					OFFSET 0 0 0
					CHANNELS 3 Zrotation Yrotation Xrotation
					JOINT LeftShoulder
					{
						OFFSET 2.17674 1.86763 -0.06520
CHANNELS 3 Zrotation Xrotation Yrotation
						JOINT LeftElbow
						{
OFFSET 0 -4.657760 0.000000
CHANNELS 3 Zrotation Xrotation Yrotation
							JOINT LeftWrist
							{
OFFSET 0 -3.555390 0.000000
CHANNELS 3 Zrotation Xrotation Yrotation
								JOINT lhand
								{
									OFFSET 0 0 0
CHANNELS 3 Zrotation Xrotation Yrotation
									JOINT LFingers
									{
OFFSET 0 -0.707260 0.000000
CHANNELS 3 Zrotation Xrotation Yrotation
										End Site
										{
OFFSET 0 -0.570220 0.000000
										}
									}
								}
								JOINT LThumb
								{
OFFSET 0 0.000000 0.000000
CHANNELS 3 Zrotation Xrotation Yrotation
									End Site
									{
OFFSET 0 -0.578920 0.578920
									}
								}
							}
						}
					}
				}
				JOINT RightCollar
				{
					OFFSET 0 0 0
					CHANNELS 3 Zrotation Yrotation Xrotation
					JOINT RightShoulder
					{
						OFFSET -2.80694 1.55459 -0.32496
CHANNELS 3 Zrotation Xrotation Yrotation
						JOINT RightElbow
						{
OFFSET 0 -4.719250 -0.000000
CHANNELS 3 Zrotation Xrotation Yrotation
							JOINT RightWrist
							{
OFFSET 0 -3.569900 0.000000
CHANNELS 3 Zrotation Xrotation Yrotation
								JOINT rhand
								{
									OFFSET 0 0 0
CHANNELS 3 Zrotation Xrotation Yrotation
									JOINT RFingers
									{
OFFSET 0 -0.507760 0.000000
CHANNELS 3 Zrotation Xrotation Yrotation
										End Site
										{
OFFSET 0 -0.409370 0.000000
										}
									}
								}
								JOINT RThumb
								{
OFFSET 0 0.000000 0.000000
CHANNELS 3 Zrotation Xrotation Yrotation
									End Site
									{
OFFSET 0 -0.415620 0.415620
									}
								}
							}
						}
					}
				}
			}
		}
	}
}
MOTION
Frames: 9
Frame Time: 0.008333333333333333
15.229995 16.504530 20.888349 172.507748 -9.637025 -151.846437 0.000000 0.000000 0.000000 0.904077 -28.453634 -70.193869 10.034289 17.428939 59.602669 0.438010 -6.604334 -11.964890 5.267223 -13.677859 -41.963231 0.000000 0.000000 0.000000 7.800324 14.710273 -18.613908 -0.381629 -3.966848 10.983407 -1.726501 -7.138644 -28.264660 -0.736203 5.481165 -15.286167 -6.789408 -0.290505 -18.125564 -1.113003 1.254585 2.746111 2.971328 0.090646 13.233736 -1.032381 -1.088168 -4.326749 4.358813 -3.954939 22.742018 1.221620 -2.144120 7.810012 0.000000 0.000000 0.000000 8.757431 -1.900168 -26.340233 16.294025 -25.917739 3.773602 23.133032 -3.705207 12.720060 0.000000 0.000000 0.000000 -7.125000 0.000000 0.000000 -2.865958 16.199805 -1.955108 0.000000 0.000000 0.000000 -3.529089 -0.596916 13.449780 -23.485545 -34.615494 -7.412341 -15.908163 8.115858 51.178209 0.000000 0.000000 0.000000 7.125000 0.000000 0.000000 -11.452345 -9.339525 -170.358114
15.181072 16.507019 20.847741 172.552497 -9.407846 -151.872185 0.000000 0.000000 0.000000 0.611719 -28.424123 -70.037750 10.106977 17.469565 59.845246 0.450950 -6.686094 -12.138755 4.985228 -13.366108 -40.756749 0.000000 0.000000 0.000000 7.715251 15.010659 -17.888784 -0.329881 -3.689189 10.204052 -1.646824 -7.548557 -27.978291 -0.790402 5.674612 -15.843367 -6.907654 -0.250407 -17.914235 -1.136076 1.330069 2.904309 3.030779 0.113372 13.284546 -1.083482 -1.205918 -4.716023 4.333219 -4.023494 22.502898 1.214238 -2.155976 7.803261 0.000000 0.000000 0.000000 8.769045 -2.178414 -26.306927 16.260277 -25.872309 3.758840 23.047259 -3.689808 12.920987 0.000000 0.000000 0.000000 -7.125000 0.000000 0.000000 -2.935510 15.992686 -2.015832 0.000000 0.000000 0.000000 -3.636842 -0.817114 13.557290 -23.538764 -34.672626 -7.442488 -15.854196 8.027895 51.173946 0.000000 0.000000 0.000000 7.125000 0.000000 0.000000 -11.474668 -9.356314 -170.342512
15.131590 16.507297 20.810355 172.600960 -9.266605 -151.758910 0.000000 0.000000 0.000000 0.457506 -28.458465 -70.112037 10.183495 17.511732 60.099861 0.479855 -6.608321 -12.480928 5.120075 -13.516842 -41.337212 0.000000 0.000000 0.000000 7.517016 15.020177 -18.430331 -0.393210 -4.020184 11.134194 -1.712555 -7.410181 -28.337487 -0.934063 6.150711 -17.224149 -7.059433 -0.230432 -17.851039 -1.148480 1.387559 2.927672 3.118066 0.128667 13.266690 -1.004243 -1.195597 -4.795038 4.255437 -3.934444 22.222192 1.183923 -2.099698 7.718610 0.000000 0.000000 0.000000 8.831169 -2.182264 -26.423639 16.309195 -25.938092 3.780199 23.118382 -3.696293 12.779771 0.000000 0.000000 0.000000 -7.125000 0.000000 0.000000 -2.879123 16.137098 -1.968052 0.000000 0.000000 0.000000 -3.707672 -0.804718 13.630870 -23.623888 -34.763972 -7.491039 -15.887278 7.890299 50.877916 0.000000 0.000000 0.000000 7.125000 0.000000 0.000000 -11.426416 -9.623415 -170.447412
15.077444 16.503762 20.772900 172.699621 -9.058795 -151.499175 0.000000 0.000000 0.000000 0.385742 -28.408845 -70.367303 10.264331 17.555794 60.368136 0.518150 -6.439377 -12.917369 5.470631 -13.891484 -42.811561 0.000000 0.000000 0.000000 7.305477 15.033393 -18.872312 -0.422482 -4.171682 11.560058 -1.714100 -7.468611 -28.385491 -1.107305 6.679348 -18.771186 -7.181356 -0.214260 -18.005314 -1.132462 1.447658 2.912342 3.224838 0.143445 13.332110 -0.992724 -1.155433 -4.810929 4.196539 -3.829267 22.058473 1.172386 -2.046533 7.662450 0.000000 0.000000 0.000000 8.821850 -2.189884 -26.411083 16.349011 -25.991580 3.797584 23.117996 -3.705585 12.814279 0.000000 0.000000 0.000000 -7.125000 0.000000 0.000000 -2.881169 16.099954 -1.971682 0.000000 0.000000 0.000000 -3.860051 -0.787568 13.811189 -23.703836 -34.849504 -7.536668 -15.917033 7.933019 51.608887 0.000000 0.000000 0.000000 7.125000 0.000000 0.000000 -11.499283 -8.937056 -170.222109
15.026255 16.517630 20.714687 172.455785 -9.311298 -152.189397 0.000000 0.000000 0.000000 -0.618686 -28.838768 -68.954414 10.230460 17.537302 60.255697 0.543501 -6.695994 -13.245596 5.631101 -14.061070 -43.482674 0.000000 0.000000 0.000000 7.383665 14.875025 -16.691496 -0.321266 -3.606024 9.974762 -1.569352 -8.469651 -28.062730 -1.187768 6.916053 -19.466809 -7.561785 -0.302269 -17.234687 -1.147541 1.358322 3.217405 3.385077 0.070027 13.235803 -0.894301 -1.188800 -4.882474 4.119328 -3.843967 21.954321 1.129331 -2.044946 7.638341 0.000000 0.000000 0.000000 8.863535 -2.336087 -26.374784 16.298035 -25.923036 3.775346 23.017158 -3.649872 13.047934 0.000000 0.000000 0.000000 -7.125000 0.000000 0.000000 -2.962775 15.859470 -2.043277 0.000000 0.000000 0.000000 -3.903705 -0.805444 13.840986 -23.722789 -34.869769 -7.547496 -15.968028 8.262731 53.456215 0.000000 0.000000 0.000000 7.125000 0.000000 0.000000 -11.707285 -7.217179 -169.630563
14.979715 16.524231 20.665648 172.418641 -9.325711 -152.478516 0.000000 0.000000 0.000000 -1.125405 -28.952523 -68.261387 10.261568 17.554046 60.358727 0.578225 -6.930428 -13.663756 5.593978 -14.022816 -43.329358 0.000000 0.000000 0.000000 7.370738 15.214840 -15.385585 -0.254583 -3.245046 8.961868 -1.466720 -9.295230 -27.917846 -1.227195 7.025226 -19.790219 -7.816548 -0.271341 -16.834497 -1.194333 1.431473 3.362835 3.489422 0.085861 13.156828 -0.764715 -1.299414 -4.981882 4.131035 -4.001868 21.899398 1.097701 -2.102909 7.641270 0.000000 0.000000 0.000000 8.996221 -2.501355 -26.458725 16.220725 -25.818981 3.741585 22.979082 -3.602029 13.118763 0.000000 0.000000 0.000000 -7.125000 0.000000 0.000000 -2.992660 15.787414 -2.068444 0.000000 0.000000 0.000000 -3.814966 -0.737590 13.744322 -23.734672 -34.882387 -7.554291 -16.329294 8.699250 54.302889 0.000000 0.000000 0.000000 7.125000 0.000000 0.000000 -11.671331 -6.344573 -169.462891
14.925318 16.519038 20.634417 172.681998 -8.895084 -151.980437 0.000000 0.000000 0.000000 -0.916675 -28.627208 -68.867307 10.378902 17.617453 60.747441 0.618684 -7.055428 -14.125923 5.403596 -13.821768 -42.533365 0.000000 0.000000 0.000000 7.152756 15.664415 -16.064895 -0.271994 -3.354721 9.267963 -1.467734 -9.252668 -27.894852 -1.308477 7.243723 -20.440344 -7.741726 -0.101739 -17.187039 -1.277438 1.676431 3.215867 3.427215 0.210818 13.169990 -0.734315 -1.364307 -4.980058 4.261388 -4.117481 21.839582 1.126185 -2.143589 7.626902 0.000000 0.000000 0.000000 9.146518 -2.542225 -26.605451 16.203129 -25.795240 3.733882 23.117874 -3.643537 12.913405 0.000000 0.000000 0.000000 -7.125000 0.000000 0.000000 -2.886225 15.993557 -1.982144 0.000000 0.000000 0.000000 -3.720693 -0.562260 13.727423 -23.791460 -34.942858 -7.586787 -16.955146 9.077349 53.681850 0.000000 0.000000 0.000000 7.125000 0.000000 0.000000 -11.342503 -6.758205 -169.864196
14.863864 16.521183 20.596838 172.796367 -8.587728 -151.706374 0.000000 0.000000 0.000000 -1.061923 -28.519735 -68.972623 10.433555 17.646570 60.927870 0.642774 -7.425067 -14.429040 5.026390 -13.408766 -40.927103 0.000000 0.000000 0.000000 6.973877 15.653401 -16.305508 -0.274755 -3.371701 9.315421 -1.453600 -9.123410 -27.703384 -1.411800 7.514497 -21.249029 -7.690897 -0.015061 -17.320344 -1.373103 1.798139 3.144549 3.326985 0.276315 13.155588 -0.774249 -1.311027 -4.875073 4.393298 -4.056140 21.737081 1.182920 -2.108398 7.575578 0.000000 0.000000 0.000000 9.264132 -2.496684 -26.705074 16.231061 -25.832908 3.746084 23.339855 -3.728692 12.671138 0.000000 0.000000 0.000000 -7.125000 0.000000 0.000000 -2.720361 16.230828 -1.853718 0.000000 0.000000 0.000000 -3.684321 -0.401819 13.820999 -23.881555 -35.038717 -7.638450 -17.221437 9.275712 53.527344 0.000000 0.000000 0.000000 7.125000 0.000000 0.000000 -11.216431 -6.833324 -169.997493
14.815981 16.523881 20.549788 172.842065 -8.373406 -151.550713 0.000000 0.000000 0.000000 -1.212009 -28.458505 -68.890123 10.462169 17.661696 61.022174 0.669785 -7.759889 -14.755416 4.696043 -13.032263 -39.490868 0.000000 0.000000 0.000000 6.742838 16.063873 -16.178932 -0.273396 -3.363245 9.291728 -1.402526 -9.537530 -27.644388 -1.469712 7.661104 -21.689299 -7.931768 -0.014687 -17.380258 -1.406524 1.858222 3.141843 3.442810 0.284458 13.177886 -0.767103 -1.251384 -4.857815 4.445988 -3.976041 21.682777 1.206046 -2.064610 7.553079 0.000000 0.000000 0.000000 9.363903 -2.495327 -26.779154 16.230104 -25.831634 3.745670 23.417356 -3.760753 12.586213 0.000000 0.000000 0.000000 -7.125000 0.000000 0.000000 -2.662292 16.314306 -1.809219 0.000000 0.000000 0.000000 -3.669334 -0.299416 13.897553 -23.999656 -35.163791 -7.706377 -16.635457 9.001600 54.121209 0.000000 0.000000 0.000000 7.125000 0.000000 0.000000 -11.535317 -6.437232 -169.614565
